<?xml version="1.0" encoding="iso-8859-1"?>
<!-- Generator: Adobe Illustrator 19.0.0, SVG Export Plug-In . SVG Version: 6.00 Build 0)  -->
<svg version="1.1" id="Layer_1" xmlns="http://www.w3.org/2000/svg" xmlns:xlink="http://www.w3.org/1999/xlink" x="0px" y="0px"
	 viewBox="0 0 512 512" style="enable-background:new 0 0 512 512;" xml:space="preserve">
<g>
	<g>
		<path d="M491.222,20.778C477.826,7.378,460.014,0,441.067,0c-18.947,0-36.761,7.379-50.158,20.779l-159.3,159.296
			c-16.07,16.072-23.332,38.724-19.964,60.857L179.179,273.4l59.422,59.422l32.468-32.47c3.536,0.538,7.115,0.809,10.707,0.809
			c0.002,0,0.001,0,0.003,0c18.94,0,36.748-7.377,50.142-20.769l159.3-159.299c13.398-13.397,20.777-31.21,20.777-50.157
			S504.62,34.175,491.222,20.778z M455.446,85.314c-7.94,7.943-20.816,7.943-28.759,0.002c-7.942-7.943-7.942-20.822-0.001-28.762
			c7.943-7.946,20.82-7.942,28.761,0C463.391,64.494,463.391,77.37,455.446,85.314z"/>
	</g>
</g>
<g>
	<g>
		<path d="M236.07,373.308l-18.977-18.978l-59.422-59.422l-0.001,0.001l-18.978-18.978c-10.657-10.658-24.828-16.528-39.901-16.528
			c-15.074,0-29.244,5.87-39.902,16.528l-35.774,35.772c-14.905,14.905-23.113,34.722-23.113,55.8
			c0,21.078,8.209,40.895,23.113,55.799l65.579,65.583C103.6,503.79,123.415,512,144.494,512c21.079,0,40.897-8.21,55.802-23.115
			l35.774-35.772C258.073,431.11,258.072,395.309,236.07,373.308z M162.713,449.805c-5.184,5.184-12.079,8.04-19.411,8.041
			c-7.332,0-14.224-2.855-19.407-8.041l-61.699-61.7c-5.18-5.18-8.033-12.073-8.034-19.408c0.001-7.336,2.853-14.228,8.034-19.409
			l38.107-38.104L200.822,411.7L162.713,449.805z"/>
	</g>
</g>
<g>
</g>
<g>
</g>
<g>
</g>
<g>
</g>
<g>
</g>
<g>
</g>
<g>
</g>
<g>
</g>
<g>
</g>
<g>
</g>
<g>
</g>
<g>
</g>
<g>
</g>
<g>
</g>
<g>
</g>
</svg>
