<?xml version="1.0" encoding="iso-8859-1"?>
<!-- Generator: Adobe Illustrator 18.0.0, SVG Export Plug-In . SVG Version: 6.00 Build 0)  -->
<!DOCTYPE svg PUBLIC "-//W3C//DTD SVG 1.1//EN" "http://www.w3.org/Graphics/SVG/1.1/DTD/svg11.dtd">
<svg version="1.1" id="Capa_1" xmlns="http://www.w3.org/2000/svg" xmlns:xlink="http://www.w3.org/1999/xlink" x="0px" y="0px"
	 viewBox="0 0 297 297" style="enable-background:new 0 0 297 297;" xml:space="preserve">
<g>
	<path d="M278.963,0H18.037c-5.458,0-9.883,4.426-9.883,9.884v260.925c0,5.458,4.425,9.884,9.883,9.884H40.77v6.424
		c0,5.458,4.426,9.884,9.884,9.884s9.883-4.426,9.883-9.884v-6.424h175.928v6.424c0,5.458,4.425,9.884,9.883,9.884
		c5.458,0,9.884-4.426,9.884-9.884v-6.424h22.732c5.458,0,9.883-4.426,9.883-9.884V9.884C288.846,4.426,284.421,0,278.963,0z
		 M269.079,19.768v45.464H27.921V19.768H269.079z M27.921,260.925V84.998h241.158v175.927H27.921z"/>
	<path d="M230.039,52.383h16.308c5.458,0,9.884-4.426,9.884-9.884s-4.426-9.884-9.884-9.884h-16.308
		c-5.458,0-9.884,4.426-9.884,9.884S224.581,52.383,230.039,52.383z"/>
	<path d="M181.115,52.383h16.309c5.458,0,9.883-4.426,9.883-9.884s-4.425-9.884-9.883-9.884h-16.309
		c-5.458,0-9.883,4.426-9.883,9.884S175.657,52.383,181.115,52.383z"/>
	<path d="M132.192,52.383H148.5c5.458,0,9.884-4.426,9.884-9.884s-4.426-9.884-9.884-9.884h-16.308
		c-5.458,0-9.884,4.426-9.884,9.884S126.734,52.383,132.192,52.383z"/>
	<path d="M50.653,52.383h16.308c5.458,0,9.884-4.426,9.884-9.884s-4.426-9.884-9.884-9.884H50.653c-5.458,0-9.884,4.426-9.884,9.884
		S45.195,52.383,50.653,52.383z"/>
	<path d="M246.347,97.847H50.653c-5.458,0-9.884,4.426-9.884,9.884v130.463c0,5.458,4.426,9.883,9.884,9.883h195.693
		c5.458,0,9.884-4.425,9.884-9.883V107.73C256.23,102.272,251.805,97.847,246.347,97.847z M236.464,228.31H60.536V117.614h175.928
		V228.31z"/>
</g>
<g>
</g>
<g>
</g>
<g>
</g>
<g>
</g>
<g>
</g>
<g>
</g>
<g>
</g>
<g>
</g>
<g>
</g>
<g>
</g>
<g>
</g>
<g>
</g>
<g>
</g>
<g>
</g>
<g>
</g>
</svg>
