<?xml version="1.0" encoding="iso-8859-1"?>
<!-- Generator: Adobe Illustrator 19.0.0, SVG Export Plug-In . SVG Version: 6.00 Build 0)  -->
<svg version="1.1" id="Layer_1" xmlns="http://www.w3.org/2000/svg" xmlns:xlink="http://www.w3.org/1999/xlink" x="0px" y="0px"
	 viewBox="0 0 512 512" style="enable-background:new 0 0 512 512;" xml:space="preserve">
<g>
	<g>
		<g>
			<path d="M503.467,426.667H76.8c-4.71,0-8.533,3.823-8.533,8.533s3.823,8.533,8.533,8.533h416.785
				c-3.362,10.146-12.681,17.067-24.252,17.067c-4.71,0-8.533,3.823-8.533,8.533v25.6H51.2v-17.067h384
				c4.71,0,8.533-3.823,8.533-8.533s-3.823-8.533-8.533-8.533H42.667c-11.81,0-25.6-6.707-25.6-25.6s13.79-25.6,25.6-25.6
				c4.71,0,8.533-3.823,8.533-8.533v-204.8c0-4.71-3.823-8.533-8.533-8.533c-4.71,0-8.533,3.823-8.533,8.533v196.975
				C13.662,396.766,0,413.03,0,435.2c0,22.161,13.679,38.383,34.133,41.907v26.359c0,4.71,3.823,8.533,8.533,8.533h426.667
				c4.71,0,8.533-3.823,8.533-8.533v-26.419C497.57,473.199,512,456.192,512,435.2C512,430.49,508.177,426.667,503.467,426.667z"/>
			<path d="M51.2,68.267c0,9.412,7.654,17.067,17.067,17.067c9.412,0,17.067-7.654,17.067-17.067
				c0-9.412-7.654-17.067-17.067-17.067C58.854,51.2,51.2,58.854,51.2,68.267z"/>
			<path d="M469.333,0H42.667C19.14,0,0,19.14,0,42.667V128c0,23.526,19.14,42.667,42.667,42.667h119.467
				c4.71,0,8.533-3.823,8.533-8.533c0-4.71-3.823-8.533-8.533-8.533H42.667c-14.114,0-25.6-11.486-25.6-25.6V42.667
				c0-14.114,11.486-25.6,25.6-25.6h426.667c14.114,0,25.6,11.486,25.6,25.6V128c0,14.114-11.486,25.6-25.6,25.6H196.267
				c-4.71,0-8.533,3.823-8.533,8.533v238.933c0,4.71,3.823,8.533,8.533,8.533s8.533-3.823,8.533-8.533v-230.4h187.733v34.816
				c-28.902,4.156-51.2,29.013-51.2,59.051v34.133c0,32.939,26.795,59.733,59.733,59.733c32.939,0,59.733-26.795,59.733-59.733
				v-34.133c0-30.037-22.298-54.895-51.2-59.051v-34.816h59.733C492.86,170.667,512,151.526,512,128V42.667
				C512,19.14,492.86,0,469.333,0z M392.533,340.471c-19.447-3.968-34.133-21.197-34.133-41.805v-34.133
				c0-20.608,14.686-37.837,34.133-41.805V340.471z M443.733,264.533v34.133c0,20.608-14.686,37.837-34.133,41.805V222.729
				C429.047,226.697,443.733,243.925,443.733,264.533z"/>
		</g>
	</g>
</g>
<g>
</g>
<g>
</g>
<g>
</g>
<g>
</g>
<g>
</g>
<g>
</g>
<g>
</g>
<g>
</g>
<g>
</g>
<g>
</g>
<g>
</g>
<g>
</g>
<g>
</g>
<g>
</g>
<g>
</g>
</svg>
